<svg width="83" height="83" viewBox="0 0 83 83" fill="none" xmlns="http://www.w3.org/2000/svg">
<circle cx="41.5" cy="41.5" r="41.5" fill="#F65F5F"/>
<g clip-path="url(#clip0_93_21)">
<path d="M46.3276 48.1099C46.5096 48.2243 46.7206 48.2844 46.9356 48.283C47.1446 48.2813 47.3494 48.2247 47.5296 48.1189C47.7117 48.015 47.8642 47.8664 47.9726 47.687C48.0545 47.5523 48.1079 47.402 48.1296 47.2458C48.1526 47.0892 48.1448 46.9296 48.1066 46.7759C48.065 46.6246 47.9973 46.482 47.9066 46.354C47.8124 46.229 47.6936 46.1244 47.5576 46.0469L42.5986 43.0811C42.3202 42.8853 42.0895 42.6292 41.9236 42.332C41.7559 42.0372 41.6536 41.7099 41.6236 41.3721V34.8159C41.622 34.4985 41.4947 34.1947 41.2696 33.9709C41.1592 33.8586 41.0276 33.7694 40.8823 33.7085C40.7371 33.6476 40.5811 33.6162 40.4236 33.6162C40.2661 33.6162 40.1102 33.6476 39.9649 33.7085C39.8197 33.7694 39.688 33.8586 39.5776 33.9709C39.3529 34.1949 39.2259 34.4987 39.2246 34.8159V41.3721C39.2525 42.1267 39.4618 42.8634 39.8349 43.52C40.2079 44.1766 40.7337 44.7337 41.3676 45.144L46.3276 48.1099Z" fill="white"/>
<path fill-rule="evenodd" clip-rule="evenodd" d="M30.0643 55.3037C33.1491 57.8281 37.0139 59.2045 40.9999 59.1982C43.2587 59.1969 45.495 58.7501 47.581 57.8838C49.667 57.0174 51.5618 55.7484 53.1569 54.1492C55.9745 51.3297 57.7271 47.6203 58.1159 43.6533C58.5047 39.6863 57.5057 35.7074 55.2891 32.3945C53.0725 29.0817 49.7755 26.6399 45.9602 25.4858C42.145 24.3318 38.0475 24.5366 34.3664 26.0654C30.6852 27.5943 27.6482 30.3525 25.7731 33.8699C23.8979 37.3873 23.3007 41.4463 24.0833 45.3547C24.8658 49.2632 26.9796 52.7793 30.0643 55.3037ZM31.596 30.5518C34.2482 28.3795 37.5717 27.1944 40.9999 27.1982V27.196C44.9231 27.2029 48.6838 28.7639 51.4589 31.5371C53.8831 33.9612 55.3916 37.151 55.7272 40.5627C56.0628 43.9745 55.2048 47.3971 53.2994 50.2471C51.394 53.097 48.5592 55.1981 45.2781 56.1919C41.9971 57.1857 38.4729 57.0109 35.3063 55.6973C32.1398 54.3836 29.5268 52.0124 27.9128 48.9878C26.2988 45.9632 25.7838 42.4727 26.4554 39.1108C27.1271 35.749 28.9438 32.724 31.596 30.5518Z" fill="white"/>
</g>
<defs>
<clipPath id="clip0_93_21">
<rect width="39.999" height="39.999" fill="white" transform="translate(21 22)"/>
</clipPath>
</defs>
</svg>
