<svg width="83" height="83" viewBox="0 0 83 83" fill="none" xmlns="http://www.w3.org/2000/svg">
<circle cx="41.5" cy="41.5" r="41.5" fill="#F65F5F"/>
<g clip-path="url(#clip0_93_20)" filter="url(#filter0_d_93_20)">
<path fill-rule="evenodd" clip-rule="evenodd" d="M49.2371 42.0084C49.2373 42.609 49.1192 43.2039 48.8895 43.7589C48.6597 44.3139 48.3229 44.8181 47.8981 45.2429C47.4734 45.6676 46.9691 46.0045 46.4141 46.2342C45.8591 46.4639 45.2643 46.5821 44.6637 46.5818H42.9999C42.6684 46.5818 42.3505 46.4501 42.1161 46.2157C41.8817 45.9813 41.75 45.6634 41.75 45.332L41.75 45.328L41.75 45.323C41.75 44.9915 41.8817 44.6736 42.1161 44.4392C42.3505 44.2048 42.6684 44.0731 42.9999 44.0731H44.6606C45.2119 44.0728 45.7405 43.8538 46.1302 43.464C46.52 43.0742 46.7391 42.5456 46.7394 41.9944V26.6203H33.0211C32.0585 26.6214 31.1136 26.8788 30.2834 27.3661C29.4533 27.8534 28.7679 28.553 28.2977 29.3929C28.1367 29.6819 27.8676 29.895 27.5495 29.9855C27.2314 30.076 26.8903 30.0364 26.6014 29.8754C26.3125 29.7144 26.0993 29.4453 26.0089 29.1272C25.9184 28.809 25.958 28.468 26.119 28.1791C26.8059 26.9511 27.8073 25.928 29.0202 25.2148C30.2331 24.5015 31.614 24.1239 33.0211 24.1206H47.9892C48.3195 24.123 48.6355 24.2552 48.869 24.4887C49.1025 24.7222 49.2347 25.0382 49.2371 25.3684V29.11H51.0499C51.8575 29.1098 52.6508 29.3236 53.349 29.7297C54.0471 30.1357 54.6252 30.7196 55.0244 31.4217L57.868 36.3941L57.8794 36.415L60.7117 41.3845C60.8168 41.5727 60.8738 41.7839 60.8777 41.9994V45.2647C60.8788 45.285 60.8795 45.3055 60.8796 45.326V50.3153C60.8788 51.9692 60.2214 53.5551 59.0518 54.7245C57.8823 55.8939 56.2963 56.551 54.6424 56.5516H54.0537C54.0054 56.7224 53.947 56.8905 53.8789 57.0552C53.6491 57.6102 53.3122 58.1145 52.8875 58.5392C52.4628 58.9639 51.9585 59.3008 51.4035 59.5306C50.8485 59.7603 50.2537 59.8784 49.653 59.8782C48.7485 59.8782 47.8643 59.6099 47.1122 59.1074C46.3601 58.6049 45.7739 57.8906 45.4277 57.0549C45.3599 56.891 45.3018 56.724 45.2537 56.5546H40.7476C40.6994 56.7243 40.6413 56.8915 40.5736 57.0552C40.3438 57.6102 40.0069 58.1145 39.5822 58.5392C39.1575 58.9639 38.6532 59.3008 38.0982 59.5306C37.5432 59.7603 36.9484 59.8784 36.3477 59.8782C35.4432 59.8782 34.559 59.6099 33.8069 59.1074C33.0548 58.6049 32.4686 57.8906 32.1224 57.0549C32.0542 56.8901 31.9958 56.722 31.9475 56.5516H31.3583C29.7044 56.551 28.1184 55.8939 26.9489 54.7245C25.7793 53.5551 25.1219 51.9692 25.1211 50.3153C25.1234 49.9851 25.2557 49.6691 25.4892 49.4356C25.7227 49.2021 26.0387 49.0698 26.3689 49.0675C26.6999 49.0688 27.0169 49.2006 27.2513 49.4342C27.4856 49.6678 27.6184 49.9844 27.6208 50.3153C27.6224 51.3065 28.0165 52.2566 28.717 52.9578C29.4175 53.6591 30.3672 54.0542 31.3583 54.0569H31.9402C32.2136 53.0989 32.7918 52.256 33.587 51.656C34.3202 51.1027 35.2012 50.7836 36.115 50.7372C36.1924 50.7333 36.2699 50.7313 36.3477 50.7313C36.41 50.7313 36.4721 50.7326 36.5341 50.7351C37.4644 50.7729 38.3628 51.0934 39.1084 51.656C39.9036 52.256 40.4817 53.0989 40.7551 54.0569H45.2531C45.4654 53.3082 45.866 52.6239 46.4191 52.0708C47.0587 51.4312 47.8736 50.9956 48.7608 50.8192C49.059 50.7599 49.3608 50.7307 49.6619 50.7313L49.67 50.7313C50.6663 50.7313 51.6354 51.0559 52.4307 51.656C53.226 52.256 53.8041 53.0989 54.0775 54.0569H54.6434C55.6356 54.0555 56.5867 53.6608 57.2883 52.9592C57.9899 52.2577 58.3846 51.3065 58.3859 50.3143V46.5738H54.6415C53.8705 46.5701 53.1321 46.2622 52.5871 45.7169C52.042 45.1716 51.7343 44.4332 51.7308 43.6622V38.6738C51.7312 38.5949 51.7348 38.5163 51.7415 38.4382C51.7975 37.7524 52.095 37.1057 52.5851 36.6155C53.1308 36.0699 53.8707 35.7629 54.6424 35.7622L52.8626 32.6525C52.6793 32.3342 52.4151 32.0701 52.0967 31.8869C51.7783 31.7038 51.4172 31.6081 51.0499 31.6097H49.2371V42.0084ZM54.6424 44.0781L58.383 44.0781V42.3323L56.0553 38.2629H54.6415C54.5867 38.2623 54.5324 38.2727 54.4817 38.2934C54.431 38.3141 54.3849 38.3448 54.3462 38.3835C54.3074 38.4222 54.2768 38.4683 54.2561 38.519C54.2443 38.5479 54.2358 38.578 54.2308 38.6087C54.2277 38.6298 54.2262 38.6513 54.2265 38.6728V43.6622C54.2259 43.7169 54.2363 43.7713 54.257 43.822C54.2777 43.8727 54.3084 43.9187 54.3471 43.9575C54.3858 43.9962 54.4319 44.0268 54.4826 44.0475C54.5333 44.0683 54.5876 44.0786 54.6424 44.0781ZM47.5743 55.3073C47.5744 55.442 47.5877 55.5769 47.6142 55.7103C47.6944 56.1135 47.8924 56.4839 48.1831 56.7746C48.4738 57.0653 48.8442 57.2633 49.2475 57.3435C49.6507 57.4237 50.0687 57.3826 50.4485 57.2252C50.8284 57.0679 51.153 56.8015 51.3814 56.4596C51.6098 56.1178 51.7318 55.7159 51.7318 55.3047C51.7302 54.7544 51.5105 54.2271 51.1209 53.8384C50.7312 53.4497 50.2034 53.2312 49.653 53.231L49.653 53.228C49.1017 53.228 48.573 53.447 48.1831 53.8368C47.7933 54.2267 47.5743 54.756 47.5743 55.3073ZM38.4264 55.3067L38.4263 55.2879C38.4204 54.7436 38.2012 54.2231 37.8156 53.8384C37.4259 53.4497 36.8981 53.2312 36.3477 53.231V53.228C35.7964 53.228 35.2676 53.447 34.8778 53.8368C34.496 54.2187 34.278 54.7338 34.2692 55.2728C34.267 55.4189 34.2801 55.5655 34.3089 55.7103C34.3891 56.1135 34.5871 56.4839 34.8778 56.7746C35.1685 57.0653 35.5389 57.2633 35.9422 57.3435C36.3454 57.4237 36.7634 57.3826 37.1432 57.2252C37.5231 57.0679 37.8477 56.8015 38.0761 56.4596C38.3036 56.1192 38.4255 55.7191 38.4265 55.3098L38.4264 55.3067Z" fill="white"/>
<path d="M26.3689 36.6001H36.3477C36.6786 36.5977 36.9952 36.4649 37.2288 36.2305C37.4625 35.9962 37.5942 35.6791 37.5955 35.3482C37.5932 35.018 37.461 34.702 37.2274 34.4685C36.9939 34.235 36.6779 34.1027 36.3477 34.1004H26.3689C26.0387 34.1027 25.7227 34.235 25.4892 34.4685C25.2557 34.702 25.1234 35.018 25.1211 35.3482C25.1224 35.6791 25.2542 35.9962 25.4878 36.2305C25.7214 36.4649 26.038 36.5977 26.3689 36.6001Z" fill="white"/>
<path d="M33.0201 41.5884H26.3689C26.038 41.5861 25.7214 41.4533 25.4878 41.2189C25.2542 40.9846 25.1224 40.6675 25.1211 40.3366C25.1234 40.0064 25.2557 39.6903 25.4892 39.4568C25.7227 39.2233 26.0387 39.0911 26.3689 39.0887H33.0201C33.3503 39.0911 33.6664 39.2233 33.8999 39.4568C34.1334 39.6903 34.2656 40.0064 34.268 40.3366C34.2666 40.6675 34.1349 40.9846 33.9013 41.2189C33.6676 41.4533 33.351 41.5861 33.0201 41.5884Z" fill="white"/>
<path d="M26.3691 46.5781H29.6951C30.026 46.5758 30.3427 46.443 30.5764 46.2086C30.81 45.9742 30.9418 45.6571 30.9431 45.3261C30.9407 44.9959 30.8085 44.6798 30.575 44.4463C30.3414 44.2127 30.0254 44.0805 29.6951 44.0781H26.3691C26.0388 44.0805 25.7228 44.2127 25.4892 44.4463C25.2557 44.6798 25.1235 44.9959 25.1211 45.3261C25.1224 45.6571 25.2542 45.9742 25.4878 46.2086C25.7215 46.443 26.0381 46.5758 26.3691 46.5781Z" fill="white"/>
</g>
<defs>
<filter id="filter0_d_93_20" x="19" y="22" width="48" height="48" filterUnits="userSpaceOnUse" color-interpolation-filters="sRGB">
<feFlood flood-opacity="0" result="BackgroundImageFix"/>
<feColorMatrix in="SourceAlpha" type="matrix" values="0 0 0 0 0 0 0 0 0 0 0 0 0 0 0 0 0 0 127 0" result="hardAlpha"/>
<feOffset dy="4"/>
<feGaussianBlur stdDeviation="2"/>
<feComposite in2="hardAlpha" operator="out"/>
<feColorMatrix type="matrix" values="0 0 0 0 0 0 0 0 0 0 0 0 0 0 0 0 0 0 0.25 0"/>
<feBlend mode="normal" in2="BackgroundImageFix" result="effect1_dropShadow_93_20"/>
<feBlend mode="normal" in="SourceGraphic" in2="effect1_dropShadow_93_20" result="shape"/>
</filter>
<clipPath id="clip0_93_20">
<rect width="40" height="40" fill="white" transform="translate(23 22)"/>
</clipPath>
</defs>
</svg>
